HIERARCHY
ROOT Hips
{
    OFFSET 0.000000 0.000000 0.000000
    CHANNELS 6 Xposition Yposition Zposition Zrotation Xrotation Yrotation
    JOINT Spine
    {
        OFFSET -0.000000 7.897928 0.000000
        CHANNELS 3 Zrotation Xrotation Yrotation
        JOINT Spine1
        {
            OFFSET -0.000000 22.881742 0.000000
            CHANNELS 3 Zrotation Xrotation Yrotation
            JOINT Neck
            {
                OFFSET -0.000000 22.787771 2.071616
                CHANNELS 3 Zrotation Xrotation Yrotation
                JOINT Head
                {
                    OFFSET -0.000000 13.484266 -1.926324
                    CHANNELS 3 Zrotation Xrotation Yrotation
                    End Site
                    {
                        OFFSET -0.000000 24.079046 0.000000
                    }
                }
            }
            JOINT LeftShoulder
            {
                OFFSET 3.854963 21.096247 -0.110468
                CHANNELS 3 Zrotation Xrotation Yrotation
                JOINT LeftArm
                {
                    OFFSET 10.572188 0.000000 0.000000
                    CHANNELS 3 Zrotation Xrotation Yrotation
                    JOINT LeftForeArm
                    {
                        OFFSET 34.932854 0.000000 0.000000
                        CHANNELS 3 Zrotation Xrotation Yrotation
                        JOINT LeftHand
                        {
                            OFFSET 23.279285 0.000000 0.000000
                            CHANNELS 3 Zrotation Xrotation Yrotation
                            End Site
                            {
                                OFFSET 14.447429 0.000000 0.000000
                            }
                        }
                    }
                }
            }
            JOINT RightShoulder
            {
                OFFSET -3.825334 21.096247 -0.110468
                CHANNELS 3 Zrotation Xrotation Yrotation
                JOINT RightArm
                {
                    OFFSET -10.572188 0.000000 0.000000
                    CHANNELS 3 Zrotation Xrotation Yrotation
                    JOINT RightForeArm
                    {
                        OFFSET -34.932854 0.000000 0.000000
                        CHANNELS 3 Zrotation Xrotation Yrotation
                        JOINT RightHand
                        {
                            OFFSET -23.279285 0.000000 0.000000
                            CHANNELS 3 Zrotation Xrotation Yrotation
                            End Site
                            {
                                OFFSET -14.447429 0.000000 0.000000
                            }
                        }
                    }
                }
            }
        }
    }
    JOINT LeftUpLeg
    {
        OFFSET 9.631618 0.000000 0.000000
        CHANNELS 3 Zrotation Xrotation Yrotation
        JOINT LeftLeg
        {
            OFFSET -0.000000 -35.385456 0.000000
            CHANNELS 3 Zrotation Xrotation Yrotation
            JOINT LeftFoot
            {
                OFFSET -0.000000 -43.284000 0.000000
                CHANNELS 3 Zrotation Xrotation Yrotation
                JOINT LeftToeBase
                {
                    OFFSET -0.000000 -6.260552 14.447429
                    CHANNELS 3 Zrotation Xrotation Yrotation
                    End Site
                    {
                        OFFSET -0.000000 0.000000 3.852648
                    }
                }
            }
        }
    }
    JOINT RightUpLeg
    {
        OFFSET -9.631618 0.000000 0.000000
        CHANNELS 3 Zrotation Xrotation Yrotation
        JOINT RightLeg
        {
            OFFSET -0.000000 -35.385456 0.000000
            CHANNELS 3 Zrotation Xrotation Yrotation
            JOINT RightFoot
            {
                OFFSET -0.000000 -43.284000 0.000000
                CHANNELS 3 Zrotation Xrotation Yrotation
                JOINT RightToeBase
                {
                    OFFSET -0.000000 -6.260552 14.447429
                    CHANNELS 3 Zrotation Xrotation Yrotation
                    End Site
                    {
                        OFFSET -0.000000 0.000000 3.852648
                    }
                }
            }
        }
    }
}
MOTION
Frames:    13
Frame Time:    0.008333
57.643951    87.272446    19.796535    0.035976    0.052210    82.463722    3.217793    -3.621467    -3.362898    -4.590337    0.159633    -3.458255    -1.940198    13.028359    -4.092523    4.779556    6.408689    -3.784851    9.260255    -2.690216    7.280052    -28.087837    -20.612020    -18.987574    16.823158    -44.854191    -61.299938    57.705978    -18.174351    37.579853    1.716687    13.664991    8.177947    45.669231    49.717163    21.850779    -2.285107    -17.100882    27.464756    2.692119    -16.546890    0.849699    7.600181    6.095597    3.191257    -4.584011    6.204865    3.545553    -5.393656    -11.311960    14.835526    0.000000    0.000000    0.000000    -8.474110    -1.095299    0.482727    4.116144    10.494552    0.195685    4.329689    -10.097726    -9.400710    0.000000    0.000000    0.000000    
57.643181    87.275146    19.796143    0.036487    0.055579    82.453072    3.236615    -3.616898    -3.373383    -4.586464    0.141638    -3.469938    -2.026183    13.222244    -4.124128    4.956541    6.222600    -3.795292    9.328644    -2.719586    7.264075    -28.283230    -20.996428    -18.956213    15.530076    -45.184933    -61.038563    57.035011    -19.632755    37.690128    1.776785    13.702906    8.175130    45.661354    49.567787    21.741608    -2.275200    -17.090456    27.353334    2.599440    -16.542564    0.807660    7.597663    6.102808    3.173062    -4.589263    6.192301    3.553618    -5.408421    -11.299128    14.855542    0.000000    0.000000    0.000000    -8.471065    -1.078926    0.465392    4.104109    10.464097    0.200824    4.350611    -10.086579    -9.391433    0.000000    0.000000    0.000000    
57.641064    87.274796    19.790768    0.039842    0.068775    82.453049    3.221238    -3.622777    -3.381625    -4.539530    0.154637    -3.477411    -2.077768    13.000177    -4.198441    4.989164    6.682635    -3.884163    9.362873    -2.723321    7.268960    -28.483204    -21.203588    -18.928453    15.050539    -45.203133    -60.584740    56.912415    -20.136845    37.557007    1.803913    13.736993    8.159886    45.612106    49.456341    21.686171    -2.264591    -17.083660    27.264032    2.314500    -16.545309    0.634167    7.579694    6.094175    3.172168    -4.588901    6.204268    3.563994    -5.410242    -11.300300    14.849099    0.000000    0.000000    0.000000    -8.490854    -1.060110    0.468465    4.099483    10.427834    0.220729    4.360938    -10.071379    -9.393092    0.000000    0.000000    0.000000    
57.639225    87.277351    19.790087    0.032150    0.076556    82.458710    3.217837    -3.641997    -3.383892    -4.515409    0.170475    -3.479510    -1.952434    13.156391    -4.110108    4.835270    6.481379    -3.803362    9.391826    -2.714051    7.278081    -28.624992    -21.338785    -18.861275    14.802740    -44.977257    -60.344585    58.111771    -19.304491    37.875019    1.853557    13.755051    8.124113    45.558445    49.363960    21.622339    -2.191998    -17.108738    27.167789    1.926353    -16.592167    0.576015    7.578787    6.076117    3.168141    -4.598990    6.218623    3.546432    -5.403622    -11.295540    14.866369    0.000000    0.000000    0.000000    -8.493515    -1.056512    0.478785    4.097136    10.409345    0.187122    4.352673    -10.063639    -9.380118    0.000000    0.000000    0.000000    
57.637302    87.277863    19.787544    0.028084    0.088761    82.478760    3.204696    -3.653069    -3.386306    -4.484112    0.184053    -3.481351    -1.887104    13.171465    -4.103435    4.748296    6.495109    -3.806696    9.390750    -2.670686    7.295175    -28.704132    -21.354408    -18.774586    14.892406    -44.614090    -60.127064    58.379013    -18.968437    37.417812    1.873013    13.754602    8.058588    45.531235    49.277058    21.577093    -2.099310    -17.124050    26.972479    1.960972    -16.629316    0.768018    7.569765    6.058614    3.165622    -4.598623    6.228809    3.548748    -5.409594    -11.288360    14.843418    0.000000    0.000000    0.000000    -8.503940    -1.045359    0.478796    4.094748    10.379131    0.162747    4.349011    -10.055545    -9.372887    0.000000    0.000000    0.000000    
57.639820    87.279114    19.784111    0.027965    0.096768    82.506630    3.196761    -3.673276    -3.385360    -4.454328    0.208665    -3.479799    -1.831647    13.128821    -4.098989    4.658036    6.624893    -3.816051    9.333117    -2.585315    7.293385    -28.644779    -21.142372    -18.603777    15.367552    -44.233040    -59.894505    57.994823    -19.114889    36.239098    1.898335    13.760696    8.009664    45.480240    49.197243    21.539385    -2.200750    -17.047392    26.762562    2.430217    -16.527405    0.904531    7.560571    6.040587    3.176609    -4.592091    6.246797    3.531385    -5.422155    -11.287705    14.826740    0.000000    0.000000    0.000000    -8.512966    -1.029992    0.464225    4.095577    10.369094    0.167481    4.363089    -10.063184    -9.402420    0.000000    0.000000    0.000000    
57.638584    87.279854    19.782690    0.024460    0.099760    82.535408    3.171467    -3.712180    -3.373122    -4.400649    0.288750    -3.464837    -1.787295    13.023889    -4.106746    4.602664    6.777425    -3.834577    9.265512    -2.526617    7.294630    -28.512056    -20.751141    -18.382494    16.243347    -43.693390    -59.768215    57.304081    -19.052126    34.835644    1.892360    13.766682    7.936207    45.404999    49.092041    21.548948    -2.143780    -16.943794    26.620472    2.424463    -16.439121    0.911185    7.561144    6.018681    3.192085    -4.585960    6.272723    3.476616    -5.435295    -11.294427    14.828154    0.000000    0.000000    0.000000    -8.517473    -1.021870    0.485726    4.102564    10.358051    0.136681    4.358541    -10.056882    -9.409507    0.000000    0.000000    0.000000    
57.639725    87.281425    19.779318    0.016109    0.107805    82.583374    3.124766    -3.766674    -3.366101    -4.334937    0.380345    -3.454502    -1.726973    12.950200    -4.118381    4.543181    6.877401    -3.856335    9.157049    -2.421817    7.316075    -28.308704    -20.319700    -18.162313    17.296246    -43.071499    -59.873466    56.507713    -18.790642    33.361969    1.867853    13.719809    7.850079    45.350220    49.077415    21.541042    -2.204080    -16.791037    26.396416    2.841403    -16.270130    1.048617    7.558197    5.986955    3.196097    -4.585182    6.288983    3.478934    -5.456176    -11.290642    14.786925    0.000000    0.000000    0.000000    -8.522176    -1.014650    0.456069    4.096227    10.349262    0.120158    4.347804    -10.057309    -9.406947    0.000000    0.000000    0.000000    
57.638813    87.281013    19.777691    0.007014    0.111197    82.632538    3.110088    -3.806880    -3.353964    -4.341965    0.432410    -3.440977    -1.625338    12.962751    -4.126095    4.501181    6.881147    -3.871365    9.024635    -2.262998    7.328056    -28.048138    -19.872337    -17.949589    18.896479    -41.984741    -60.042606    55.657528    -17.567904    31.926525    1.911130    13.685932    7.772044    45.290081    49.064007    21.510092    -2.073349    -16.808420    26.278391    2.418689    -16.324173    0.986696    7.564574    5.951423    3.204754    -4.589163    6.314271    3.436124    -5.441083    -11.291443    14.782122    0.000000    0.000000    0.000000    -8.527430    -1.008070    0.453061    4.106991    10.341370    0.103823    4.343569    -10.070023    -9.441597    0.000000    0.000000    0.000000    
57.639355    87.278770    19.777859    0.000676    0.107947    82.683235    3.051817    -3.859261    -3.314475    -4.293348    0.541975    -3.397029    -1.549633    12.878909    -4.183820    4.546148    6.969704    -3.932437    8.929496    -2.133621    7.329996    -27.788208    -19.299219    -17.773735    20.287376    -41.125870    -60.635536    55.331688    -16.392344    30.582520    1.919175    13.616161    7.605299    45.192871    49.112228    21.535500    -1.952217    -16.761110    26.150011    2.299433    -16.307426    0.970026    7.577507    5.924952    3.204686    -4.586631    6.337168    3.384243    -5.428476    -11.301709    14.779943    0.000000    0.000000    0.000000    -8.519553    -1.007404    0.437149    4.102317    10.359088    0.111728    4.347517    -10.091383    -9.477691    0.000000    0.000000    0.000000    
57.641918    87.275177    19.776505    -0.002892    0.110391    82.744705    2.990150    -3.909863    -3.294553    -4.236659    0.626616    -3.373463    -1.595512    12.840754    -4.233596    4.723819    7.036093    -3.970409    8.788201    -2.041366    7.334984    -27.402922    -18.533739    -17.463209    22.038649    -40.179733    -61.392879    54.625465    -14.828637    29.435699    1.888690    13.617147    7.526295    45.113270    49.102341    21.566187    -2.039285    -16.616699    25.952871    2.814910    -16.140793    1.045671    7.578811    5.901600    3.213055    -4.578533    6.353014    3.346359    -5.404726    -11.303020    14.753583    0.000000    0.000000    0.000000    -8.524863    -0.991726    0.403815    4.108073    10.353927    0.136156    4.329242    -10.111208    -9.530393    0.000000    0.000000    0.000000    
57.645081    87.269966    19.777367    -0.007684    0.107339    82.806091    2.950404    -3.980517    -3.276185    -4.230497    0.742487    -3.351321    -1.588601    12.801283    -4.268350    4.864344    7.074152    -3.996386    8.702641    -1.977991    7.358748    -27.021172    -17.599022    -17.165901    23.705862    -39.580235    -62.212246    53.383652    -14.351773    27.315603    1.867638    13.581201    7.453119    45.060688    49.119209    21.583389    -1.922436    -16.554482    25.864399    2.448736    -16.111769    0.912270    7.592286    5.884659    3.211839    -4.577226    6.353055    3.316165    -5.422780    -11.317938    14.723258    0.000000    0.000000    0.000000    -8.517980    -0.979522    0.379679    4.102936    10.363561    0.139434    4.349036    -10.145358    -9.558190    0.000000    0.000000    0.000000    
57.646515    87.266144    19.777298    -0.018209    0.101587    82.881248    2.889634    -4.029169    -3.265585    -4.175705    0.800438    -3.338074    -1.662542    12.782077    -4.317643    5.062928    7.144984    -4.031999    8.596200    -1.931408    7.395514    -26.651917    -16.695984    -16.900742    25.724308    -38.569622    -63.288803    52.972260    -12.557224    25.490633    1.786800    13.532888    7.369129    45.053215    49.180565    21.599806    -1.897269    -16.415974    25.687172    2.435832    -15.982737    0.857262    7.606928    5.863479    3.197660    -4.571248    6.345876    3.291374    -5.390295    -11.310325    14.691732    0.000000    0.000000    0.000000    -8.513430    -0.972356    0.359829    4.114820    10.368696    0.113440    4.313520    -10.159084    -9.586016    0.000000    0.000000    0.000000    
